{
  "accessors": [
    {
      "bufferView": 1,
      "componentType": 5126,
      "count": 7918,
      "max": [
        4.699448108673096,
        4.264648914337158,
        4.161506175994873
      ],
      "min": [
        -4.699447154998779,
        -4.264648914337158,
        -4.161506175994873
      ],
      "type": "VEC3"
    },
    {
      "bufferView": 1,
      "byteOffset": 95016,
      "componentType": 5126,
      "count": 7918,
      "max": [
        0.9996514320373535,
        0.9926782250404358,
        0.9996809363365173
      ],
      "min": [
        -0.9996514320373535,
        -0.9926781058311462,
        -0.9996809363365173
      ],
      "type": "VEC3"
    },
    {
      "bufferView": 1,
      "byteOffset": 190032,
      "componentType": 5126,
      "count": 7918,
      "max": [
        1.0,
        1.0,
        0.45098039507865906
      ],
      "min": [
        0.0,
        0.0,
        0.0
      ],
      "type": "VEC3"
    },
    {
      "bufferView": 0,
      "componentType": 5125,
      "count": 23238,
      "type": "SCALAR"
    }
  ],
  "asset": {
    "extras": {
      "author": "AVZ (https://sketchfab.com/micropalaeontology)",
      "license": "CC-BY-4.0 (http://creativecommons.org/licenses/by/4.0/)",
      "source": "https://sketchfab.com/3d-models/gift-flower-911690173f1c44c98eb87154ad9cf508",
      "title": "Gift flower"
    },
    "generator": "Sketchfab-12.68.0",
    "version": "2.0"
  },
  "bufferViews": [
    {
      "buffer": 0,
      "byteLength": 92952,
      "name": "floatBufferViews",
      "target": 34963
    },
    {
      "buffer": 0,
      "byteLength": 285048,
      "byteOffset": 92952,
      "byteStride": 12,
      "name": "floatBufferViews",
      "target": 34962
    }
  ],
  "buffers": [
    {
      "byteLength": 378000,
      "uri": "scene.bin"
    }
  ],
  "extensionsUsed": [
    "KHR_materials_clearcoat"
  ],
  "materials": [
    {
      "doubleSided": true,
      "extensions": {
        "KHR_materials_clearcoat": {
          "clearcoatFactor": 1.0,
          "clearcoatRoughnessFactor": 0.04
        }
      },
      "name": "Material",
      "pbrMetallicRoughness": {
        "baseColorFactor": [
          0.64,
          0.64,
          0.64,
          1.0
        ],
        "metallicFactor": 0.0809832317,
        "roughnessFactor": 0.4129192073
      }
    }
  ],
  "meshes": [
    {
      "name": "Material-material",
      "primitives": [
        {
          "attributes": {
            "COLOR_0": 2,
            "NORMAL": 1,
            "POSITION": 0
          },
          "indices": 3,
          "material": 0,
          "mode": 4
        }
      ]
    }
  ],
  "nodes": [
    {
      "children": [
        1
      ],
      "matrix": [
        1.0,
        0.0,
        0.0,
        0.0,
        0.0,
        2.220446049250313e-16,
        -1.0,
        0.0,
        0.0,
        1.0,
        2.220446049250313e-16,
        0.0,
        0.0,
        0.0,
        0.0,
        1.0
      ],
      "name": "Sketchfab_model"
    },
    {
      "children": [
        2,
        4,
        6
      ],
      "matrix": [
        1.0,
        0.0,
        0.0,
        0.0,
        0.0,
        -4.371139006309477e-08,
        0.999999999999999,
        0.0,
        0.0,
        -0.999999999999999,
        -4.371139006309477e-08,
        0.0,
        0.0,
        0.0,
        0.0,
        1.0
      ],
      "name": "Collada visual scene group"
    },
    {
      "children": [
        3
      ],
      "name": "Object"
    },
    {
      "mesh": 0,
      "name": "Material-material"
    },
    {
      "children": [
        5
      ],
      "matrix": [
        -0.2908646,
        0.9551712,
        -0.05518906,
        0.0,
        -0.7711008,
        -0.1998834,
        0.6045247,
        0.0,
        0.5663932,
        0.2183912,
        0.7946723,
        0.0,
        4.076245,
        1.005454,
        5.903862,
        1.0
      ],
      "name": "Lamp"
    },
    {
      "name": "Lamp"
    },
    {
      "children": [
        7
      ],
      "matrix": [
        0.6859207,
        0.7276763,
        0.0,
        0.0,
        -0.3240135,
        0.3054208,
        0.8953956,
        0.0,
        0.6515582,
        -0.6141704,
        0.4452714,
        0.0,
        7.481132,
        -6.50764,
        5.343665,
        1.0
      ],
      "name": "Camera"
    },
    {
      "name": "Camera-camera"
    }
  ],
  "scene": 0,
  "scenes": [
    {
      "name": "Sketchfab_Scene",
      "nodes": [
        0
      ]
    }
  ]
}
